<svg xmlns="http://www.w3.org/2000/svg" width="191.854" height="45.251" viewBox="0 0 191.854 45.251">
  <g id="Group_1" data-name="Group 1" transform="translate(-964.093 -520.94)">
    <path id="Path_1" data-name="Path 1" d="M992.756,529.3a11.139,11.139,0,0,0-2.488-3.479,12.191,12.191,0,0,0-12.744-2.346,11.727,11.727,0,0,0-3.688,2.346,11.333,11.333,0,0,0-2.479,3.479,10.137,10.137,0,0,0-.9,4.261v16.406h5.781v-5.475h11.62v5.475h5.817V533.56A10.148,10.148,0,0,0,992.756,529.3Zm-4.9,9.736h-11.62V533.56a5.048,5.048,0,0,1,.462-2.124,5.345,5.345,0,0,1,1.244-1.742,5.771,5.771,0,0,1,1.853-1.178,5.95,5.95,0,0,1,2.257-.431,6.053,6.053,0,0,1,2.257.431,5.973,5.973,0,0,1,1.853,1.178,5.769,5.769,0,0,1,1.244,1.742,5.176,5.176,0,0,1,.449,2.124Z" transform="translate(21.904 5.755)" fill="#fff"/>
    <path id="Path_2" data-name="Path 2" d="M999.849,530.663a10.683,10.683,0,0,0-1.169-2.608,10.933,10.933,0,0,0-1.831-2.226,12.018,12.018,0,0,0-8.185-3.217h-11.62v27.354h5.817v-5.475h5.8a11.954,11.954,0,0,0,8.2-3.208,10.854,10.854,0,0,0,2.489-3.479,10.282,10.282,0,0,0,.5-7.141ZM994,535.688a5.382,5.382,0,0,1-1.244,1.751,5.879,5.879,0,0,1-1.84,1.169,5.951,5.951,0,0,1-2.248.427h-5.8V528.085h5.8a5.921,5.921,0,0,1,4.088,1.609A5.344,5.344,0,0,1,994,531.436a5.124,5.124,0,0,1,0,4.253Z" transform="translate(44.601 5.755)" fill="#fff"/>
    <path id="Path_3" data-name="Path 3" d="M1012.4,532.914a13.14,13.14,0,0,0-1.511-3.372,14.125,14.125,0,0,0-2.346-2.862,14.268,14.268,0,0,0-3.04-2.217,16.091,16.091,0,0,0-3.577-1.422,15.919,15.919,0,0,0-7.968,0,16.274,16.274,0,0,0-3.577,1.422,14.809,14.809,0,0,0-5.412,5.079,13.777,13.777,0,0,0-1.52,3.372,13.35,13.35,0,0,0,0,7.5,13.924,13.924,0,0,0,3.879,6.243,14.817,14.817,0,0,0,3.053,2.226,15.463,15.463,0,0,0,3.577,1.431,15.917,15.917,0,0,0,7.968,0,15.3,15.3,0,0,0,3.577-1.431,14.612,14.612,0,0,0,3.04-2.226,14.115,14.115,0,0,0,2.346-2.862,13.769,13.769,0,0,0,1.511-3.381,13.249,13.249,0,0,0,0-7.5Zm-5.959,7.127a9.05,9.05,0,0,1-1.973,2.751,9.2,9.2,0,0,1-2.941,1.862,9.666,9.666,0,0,1-7.19,0,9.154,9.154,0,0,1-4.928-4.612,8.236,8.236,0,0,1,0-6.754,8.832,8.832,0,0,1,2-2.764,9.205,9.205,0,0,1,2.933-1.862,9.782,9.782,0,0,1,7.19,0,9.2,9.2,0,0,1,2.941,1.862,8.7,8.7,0,0,1,1.973,2.764,8.189,8.189,0,0,1,0,6.754Z" transform="translate(64.807 5.49)" fill="#fff"/>
    <path id="Path_4" data-name="Path 4" d="M1003.007,544.491v-21.88H997.2v27.354h18.792v-5.475Z" transform="translate(114.002 5.755)" fill="#fff"/>
    <rect id="Rectangle_1" data-name="Rectangle 1" width="12.988" height="4.716" transform="translate(1087.204 520.94)" fill="#fff"/>
    <path id="Path_5" data-name="Path 5" d="M1019.457,522.611v16.423a4.886,4.886,0,0,1-.462,2.115,5.388,5.388,0,0,1-1.244,1.742,6.057,6.057,0,0,1-8.216,0,5.523,5.523,0,0,1-1.244-1.742,4.877,4.877,0,0,1-.453-2.115V522.611h-5.794v16.423a10.219,10.219,0,0,0,.915,4.266,10.828,10.828,0,0,0,2.48,3.47,12.116,12.116,0,0,0,16.423,0,10.72,10.72,0,0,0,2.488-3.47,10.225,10.225,0,0,0,.915-4.266V522.611Z" transform="translate(130.682 5.755)" fill="#fff"/>
    <path id="Path_6" data-name="Path 6" d="M1014.445,537.568v-.347h-.009v-1.751h-12.655v5.288h6.563a5.7,5.7,0,0,1-.28.786,5.451,5.451,0,0,1-1.271,1.777,5.847,5.847,0,0,1-1.893,1.2,6.035,6.035,0,0,1-2.306.44,6.107,6.107,0,0,1-4.2-1.644,5.793,5.793,0,0,1-1.271-1.777,5.344,5.344,0,0,1-.462-2.173v-1.8h-.031V533.8a5.139,5.139,0,0,1,.471-2.173,5.45,5.45,0,0,1,1.271-1.778,5.842,5.842,0,0,1,1.893-1.2,6.038,6.038,0,0,1,2.306-.44,6.111,6.111,0,0,1,4.2,1.644c.053.054.1.107.151.16l1.706-1.706,2.377-2.377-.04-.04a12.349,12.349,0,0,0-16.792,0,11.654,11.654,0,0,0-2.533,3.559,10.411,10.411,0,0,0-.92,4.355v5.79h0a10.328,10.328,0,0,0,.929,4.137,11.446,11.446,0,0,0,2.542,3.555,12.489,12.489,0,0,0,13.024,2.4,11.972,11.972,0,0,0,3.768-2.4,11.489,11.489,0,0,0,2.533-3.555,10.153,10.153,0,0,0,.831-2.968h0l.084-1.1,0-.067h0v-2.022Z" transform="translate(91.695 5.755)" fill="#fff"/>
    <path id="Path_7" data-name="Path 7" d="M964.093,537.664a13.168,13.168,0,0,0,.827,3.728,14.1,14.1,0,0,0,2.4,4.044,14.655,14.655,0,0,0,3.639,3.071c.391.235.786.444,1.2.64.129.062.262.125.4.187l.12.049a15.374,15.374,0,0,0,2.346.822,15.211,15.211,0,0,0,3.946.5,15.806,15.806,0,0,0,5.159-.853,14.465,14.465,0,0,0,4.5-2.515l-3.048-4.732a8.821,8.821,0,0,1-2.994,1.977,9.657,9.657,0,0,1-3.617.689,9.208,9.208,0,0,1-3.577-.689,9.381,9.381,0,0,1-2.915-1.844,8.917,8.917,0,0,1-1.968-2.733,8.108,8.108,0,0,1,0-6.7,8.814,8.814,0,0,1,1.968-2.733,9.515,9.515,0,0,1,6.492-2.537,9.752,9.752,0,0,1,3.617.689,8.819,8.819,0,0,1,2.994,1.977l3.048-4.732a14.645,14.645,0,0,0-4.5-2.515,15.92,15.92,0,0,0-5.159-.849,15.514,15.514,0,0,0-6.292,1.32l-.12.053c-.133.058-.266.12-.4.182-.409.2-.8.409-1.2.64a14.755,14.755,0,0,0-3.639,3.07,14.17,14.17,0,0,0-2.4,4.044,13.2,13.2,0,0,0-.827,3.732" transform="translate(0 5.734)" fill="#fff"/>
    <path id="Path_8" data-name="Path 8" d="M976.487,534.886l-10.507,2.421v-5.558l10.507-2.421Z" transform="translate(6.5 28.884)" fill="#ea3d3d"/>
  </g>
</svg>
