<?xml version="1.0" encoding="utf-8"?><svg xmlns="http://www.w3.org/2000/svg" xmlns:xlink="http://www.w3.org/1999/xlink"><symbol viewBox="0 0 21 20.948" id="icon-facebooks" xmlns="http://www.w3.org/2000/svg"><path d="M21 10.5A10.5 10.5 0 108.4 20.79v-7.14H6.3V10.5h2.1V7.875A3.679 3.679 0 0112.075 4.2H14.7v3.15h-2.1a1.053 1.053 0 00-1.05 1.05v2.1h3.15v3.15h-3.15v7.3A10.5 10.5 0 0021 10.5z"/></symbol><symbol viewBox="0 0 21 21.004" id="icon-instagram" xmlns="http://www.w3.org/2000/svg"><path data-name="Path 25794" d="M20.947 6.175a7.705 7.705 0 00-.488-2.548A5.383 5.383 0 0017.384.555a7.689 7.689 0 00-2.547-.489C13.712.013 13.355 0 10.5 0S7.291.013 6.171.061a7.7 7.7 0 00-2.548.488 5.125 5.125 0 00-1.859 1.215 5.171 5.171 0 00-1.21 1.858A7.7 7.7 0 00.065 6.17C.013 7.3 0 7.652 0 10.5s.013 3.209.061 4.329a7.681 7.681 0 00.489 2.548 5.375 5.375 0 003.072 3.073 7.7 7.7 0 002.548.489c1.12.049 1.477.061 4.329.061s3.209-.013 4.329-.061a7.7 7.7 0 002.548-.488 5.372 5.372 0 003.073-3.073 7.7 7.7 0 00.487-2.548c.05-1.121.062-1.477.062-4.329s0-3.209-.053-4.329zm-1.892 8.576a5.741 5.741 0 01-.361 1.949 3.484 3.484 0 01-1.994 1.994 5.744 5.744 0 01-1.949.361c-1.108.05-1.44.061-4.243.061s-3.139-.012-4.243-.061a5.724 5.724 0 01-1.949-.361 3.231 3.231 0 01-1.206-.783 3.265 3.265 0 01-.784-1.211 5.809 5.809 0 01-.361-1.949c-.049-1.108-.061-1.44-.061-4.243s.013-3.139.061-4.243a5.789 5.789 0 01.361-1.945 3.193 3.193 0 01.788-1.206A3.26 3.26 0 014.32 2.33a5.8 5.8 0 011.95-.361c1.107-.049 1.44-.061 4.243-.061s3.138.013 4.243.061a5.777 5.777 0 011.948.361 3.459 3.459 0 011.99 1.99 5.76 5.76 0 01.361 1.949c.05 1.107.062 1.44.062 4.243s-.013 3.13-.062 4.238z"/><path data-name="Path 25795" d="M10.504 5.108a5.4 5.4 0 105.4 5.4 5.4 5.4 0 00-5.4-5.4zm0 8.9a3.5 3.5 0 113.5-3.5 3.5 3.5 0 01-3.5 3.5zM17.373 4.9a1.26 1.26 0 11-1.259-1.214A1.26 1.26 0 0117.373 4.9z"/></symbol><symbol viewBox="0 0 17.885 17.885" id="icon-linkedin" xmlns="http://www.w3.org/2000/svg"><path d="M17.88 17.885v-6.56c0-3.209-.691-5.681-4.443-5.681A3.893 3.893 0 009.93 7.572h-.053V5.944H6.326v11.94h3.7v-5.912c0-1.557.294-3.063 2.222-3.063 1.9 0 1.928 1.777 1.928 3.163v5.813zM.296 5.945h3.708v11.94H.296zM2.15 0a2.158 2.158 0 102.145 2.15A2.148 2.148 0 002.15 0z"/></symbol><symbol id="icon-play" viewBox="0 0 21.5 24.7" xml:space="preserve" xmlns="http://www.w3.org/2000/svg"><style/><path id="dsvgexport-1" class="dst0" d="M4.9.6l15.2 10c1.4.9 1.8 2.8.9 4.2-.3.4-.7.8-1.1 1L4.6 24.3c-1.5.8-3.4.3-4.2-1.2-.3-.5-.4-1-.4-1.5V3.2C0 1.4 1.3 0 3.1 0c.6 0 1.3.2 1.8.6z"/></symbol><symbol viewBox="0 0 21 17.193" id="icon-twitter" xmlns="http://www.w3.org/2000/svg"><path d="M20.524 1.984a7.961 7.961 0 01-1.016.37 4.49 4.49 0 00.914-1.608.339.339 0 00-.5-.395 7.993 7.993 0 01-2.363.934 4.51 4.51 0 00-7.657 3.223 4.6 4.6 0 00.037.582A11.541 11.541 0 012.017.89a.339.339 0 00-.555.043 4.515 4.515 0 00.462 5.189 3.819 3.819 0 01-.6-.269.339.339 0 00-.5.288v.06a4.524 4.524 0 002.207 3.877 3.633 3.633 0 01-.343-.05.339.339 0 00-.386.436 4.507 4.507 0 003.3 3.022 7.975 7.975 0 01-4.269 1.217 8.155 8.155 0 01-.955-.056.339.339 0 00-.223.621 12.157 12.157 0 006.575 1.925 11.7 11.7 0 009.061-3.98 12.615 12.615 0 003.14-8.222c0-.124 0-.249-.006-.373a8.764 8.764 0 002.017-2.136.339.339 0 00-.419-.5z"/></symbol><symbol viewBox="0 0 15.524 31.047" id="icon-umut" xmlns="http://www.w3.org/2000/svg"><path data-name="Path 1488" d="M15.524 10.673H9.7V6.792a1.941 1.941 0 011.94-1.94h1.94V0H9.7a5.821 5.821 0 00-5.821 5.821v4.851H0v4.851h3.881v15.525H9.7V15.524h3.881z"/></symbol><symbol viewBox="0 0 24 24" id="icon-youtube" xmlns="http://www.w3.org/2000/svg"><path xmlns="http://www.w3.org/2000/svg" d="M.522 17.874c.49 1.738 1.989 2.056 2.089 2.117 2.467.672 16.295.674 18.799 0 1.715-.496 2.03-2.017 2.089-2.117.653-3.474.696-8.003-.03-11.945l.03.196c-.49-1.738-1.989-2.056-2.089-2.117-2.434-.661-16.298-.686-18.799 0C.896 4.505.581 6.025.522 6.125c-.699 3.651-.734 7.84 0 11.749zm9.086-2.223V8.358l6.266 3.652z" data-original="#e53935"/></symbol><symbol viewBox="0 0 9.9 15.6" id="next" xmlns="http://www.w3.org/2000/svg"><path d="M1.5 15.6a1.6 1.6 0 01-1.1-.5 1.7 1.7 0 010-2.1l5.3-5.2L.4 2.6A1.8 1.8 0 01.4.4a1.8 1.8 0 012.2 0l7.3 7.4-7.3 7.3a1.6 1.6 0 01-1.1.5z" data-name="Path 20808"/></symbol><symbol viewBox="0 0 9.9 15.6" id="prev" xmlns="http://www.w3.org/2000/svg"><path d="M8.4 0a1.5 1.5 0 011.1.4 1.8 1.8 0 010 2.2L4.2 7.8 9.5 13a1.7 1.7 0 010 2.1 1.6 1.6 0 01-2.2 0L0 7.8 7.3.4A1.5 1.5 0 018.4 0z" data-name="Path 20808"/></symbol></svg>