<svg xmlns="http://www.w3.org/2000/svg" width="170.907" height="40.31" viewBox="0 0 170.907 40.31"><defs><style>.a{fill:#17262f;}.b{fill:#ea3d3d;}</style></defs><g transform="translate(-964.093 -520.94)"><path class="a" d="M990.321,528.568a9.924,9.924,0,0,0-2.217-3.1,10.86,10.86,0,0,0-11.353-2.09,10.449,10.449,0,0,0-3.286,2.09,10.1,10.1,0,0,0-2.209,3.1,9.028,9.028,0,0,0-.8,3.8v14.614h5.15V542.1h10.351v4.877h5.182V532.364A9.039,9.039,0,0,0,990.321,528.568Zm-4.366,8.673H975.6v-4.877a4.5,4.5,0,0,1,.411-1.892,4.761,4.761,0,0,1,1.108-1.552,5.14,5.14,0,0,1,1.651-1.049,5.3,5.3,0,0,1,2.011-.384,5.392,5.392,0,0,1,2.011.384,5.32,5.32,0,0,1,1.651,1.049,5.141,5.141,0,0,1,1.108,1.552,4.61,4.61,0,0,1,.4,1.892Z" transform="translate(18.818 4.944)"/><path class="a" d="M997.359,529.783a9.523,9.523,0,0,0-1.041-2.323,9.74,9.74,0,0,0-1.631-1.983,10.7,10.7,0,0,0-7.291-2.866H977.044v24.368h5.182V542.1h5.17a10.65,10.65,0,0,0,7.3-2.858,9.668,9.668,0,0,0,2.217-3.1,9.16,9.16,0,0,0,.443-6.361Zm-5.213,4.477a4.8,4.8,0,0,1-1.109,1.56,5.239,5.239,0,0,1-1.639,1.041,5.3,5.3,0,0,1-2,.38h-5.17v-9.753h5.17a5.275,5.275,0,0,1,3.642,1.433,4.76,4.76,0,0,1,1.109,1.552,4.565,4.565,0,0,1,0,3.788Z" transform="translate(38.318 4.944)"/><path class="a" d="M1009.181,531.781a11.7,11.7,0,0,0-1.346-3,12.583,12.583,0,0,0-2.09-2.549,12.714,12.714,0,0,0-2.708-1.975,14.345,14.345,0,0,0-3.186-1.267,14.183,14.183,0,0,0-7.1,0,14.5,14.5,0,0,0-3.186,1.267,13.193,13.193,0,0,0-4.821,4.524,12.277,12.277,0,0,0-1.354,3,11.9,11.9,0,0,0,0,6.682,12.406,12.406,0,0,0,3.455,5.562,13.2,13.2,0,0,0,2.72,1.983,13.773,13.773,0,0,0,3.186,1.275,14.179,14.179,0,0,0,7.1,0,13.629,13.629,0,0,0,3.186-1.275,13.024,13.024,0,0,0,2.708-1.983,12.571,12.571,0,0,0,2.09-2.549,12.255,12.255,0,0,0,1.346-3.012,11.8,11.8,0,0,0,0-6.682Zm-5.308,6.349a8.061,8.061,0,0,1-1.758,2.45,8.192,8.192,0,0,1-2.62,1.658,8.61,8.61,0,0,1-6.4,0,8.154,8.154,0,0,1-4.39-4.109,7.337,7.337,0,0,1,0-6.017,7.866,7.866,0,0,1,1.777-2.462,8.2,8.2,0,0,1,2.613-1.658,8.714,8.714,0,0,1,6.4,0,8.194,8.194,0,0,1,2.62,1.658,7.744,7.744,0,0,1,1.758,2.462,7.294,7.294,0,0,1,0,6.017Z" transform="translate(55.676 4.717)"/><path class="a" d="M1002.372,542.1V522.611H997.2v24.368h16.74V542.1Z" transform="translate(97.94 4.944)"/><rect class="a" width="11.57" height="4.201" transform="translate(1073.762 520.94)"/><path class="a" d="M1017.556,522.611v14.63a4.352,4.352,0,0,1-.412,1.884,4.8,4.8,0,0,1-1.109,1.552,5.4,5.4,0,0,1-7.319,0,4.921,4.921,0,0,1-1.109-1.552,4.344,4.344,0,0,1-.4-1.884v-14.63h-5.162v14.63a9.1,9.1,0,0,0,.815,3.8,9.646,9.646,0,0,0,2.209,3.091,10.793,10.793,0,0,0,14.63,0,9.546,9.546,0,0,0,2.217-3.091,9.107,9.107,0,0,0,.815-3.8v-14.63Z" transform="translate(112.271 4.944)"/><path class="a" d="M1011.855,535.935v-.309h-.008v-1.56h-11.273v4.711h5.846a5.1,5.1,0,0,1-.249.7,4.856,4.856,0,0,1-1.132,1.583,5.209,5.209,0,0,1-1.686,1.073,5.377,5.377,0,0,1-2.055.392,5.44,5.44,0,0,1-3.74-1.465,5.162,5.162,0,0,1-1.132-1.583,4.76,4.76,0,0,1-.412-1.936v-1.607h-.027v-3.357a4.579,4.579,0,0,1,.419-1.936,4.856,4.856,0,0,1,1.132-1.583,5.205,5.205,0,0,1,1.686-1.073,5.379,5.379,0,0,1,2.054-.392,5.444,5.444,0,0,1,3.741,1.465c.047.048.091.1.134.143l1.52-1.52,2.118-2.118-.036-.036a11,11,0,0,0-14.958,0,10.384,10.384,0,0,0-2.257,3.171,9.274,9.274,0,0,0-.819,3.879v5.158h0a9.2,9.2,0,0,0,.827,3.685,10.2,10.2,0,0,0,2.264,3.167,11.125,11.125,0,0,0,11.6,2.137,10.664,10.664,0,0,0,3.357-2.137,10.233,10.233,0,0,0,2.256-3.167,9.039,9.039,0,0,0,.74-2.644h0l.075-.982,0-.06h0v-1.8Z" transform="translate(78.776 4.944)"/><path class="a" d="M964.093,536.02a11.73,11.73,0,0,0,.736,3.321,12.563,12.563,0,0,0,2.142,3.6,13.052,13.052,0,0,0,3.242,2.735c.348.21.7.4,1.065.57l.352.166.107.043a13.706,13.706,0,0,0,5.6,1.18,14.082,14.082,0,0,0,4.6-.76,12.883,12.883,0,0,0,4.01-2.24l-2.716-4.216a7.858,7.858,0,0,1-2.667,1.761,8.6,8.6,0,0,1-3.222.614,8.2,8.2,0,0,1-3.187-.614,8.358,8.358,0,0,1-2.6-1.643,7.941,7.941,0,0,1-1.753-2.434,7.221,7.221,0,0,1,0-5.969,7.85,7.85,0,0,1,1.753-2.434,8.476,8.476,0,0,1,5.783-2.26,8.686,8.686,0,0,1,3.222.613,7.855,7.855,0,0,1,2.667,1.762l2.716-4.216a13.044,13.044,0,0,0-4.01-2.24,14.182,14.182,0,0,0-4.6-.756,13.819,13.819,0,0,0-5.6,1.176l-.107.048c-.119.051-.237.107-.352.162-.364.174-.716.364-1.065.57a13.14,13.14,0,0,0-3.242,2.735,12.622,12.622,0,0,0-2.142,3.6,11.756,11.756,0,0,0-.736,3.325" transform="translate(0 4.926)"/><path class="b" d="M975.34,534.279l-9.36,2.157v-4.951l9.36-2.156Z" transform="translate(5.584 24.815)"/></g></svg>