<svg xmlns="http://www.w3.org/2000/svg" width="176.518" height="41.634" viewBox="0 0 176.518 41.634"><defs><style>.a{fill:#fff;}.b{fill:#ea3d3d;}</style></defs><g transform="translate(-964.093 -520.94)"><path class="a" d="M990.974,528.764a10.248,10.248,0,0,0-2.289-3.2,11.216,11.216,0,0,0-11.725-2.159,10.789,10.789,0,0,0-3.393,2.159,10.426,10.426,0,0,0-2.281,3.2,9.326,9.326,0,0,0-.83,3.921v15.094h5.319v-5.037h10.691v5.037h5.352V532.685A9.336,9.336,0,0,0,990.974,528.764Zm-4.51,8.958H975.773v-5.037a4.645,4.645,0,0,1,.425-1.954,4.918,4.918,0,0,1,1.145-1.6,5.309,5.309,0,0,1,1.705-1.083,5.475,5.475,0,0,1,2.077-.4,5.57,5.57,0,0,1,2.077.4,5.5,5.5,0,0,1,1.7,1.083,5.309,5.309,0,0,1,1.145,1.6,4.763,4.763,0,0,1,.413,1.954Z" transform="translate(19.645 5.161)"/><path class="a" d="M998.026,530.019a9.831,9.831,0,0,0-1.075-2.4,10.06,10.06,0,0,0-1.684-2.048,11.057,11.057,0,0,0-7.531-2.96H977.045v25.168H982.4v-5.037h5.339a11,11,0,0,0,7.543-2.952,9.986,9.986,0,0,0,2.29-3.2,9.459,9.459,0,0,0,.458-6.57Zm-5.384,4.624a4.954,4.954,0,0,1-1.145,1.611,5.409,5.409,0,0,1-1.693,1.075,5.476,5.476,0,0,1-2.069.392H982.4V527.648h5.339a5.448,5.448,0,0,1,3.761,1.48,4.919,4.919,0,0,1,1.145,1.6,4.715,4.715,0,0,1,0,3.913Z" transform="translate(40 5.161)"/><path class="a" d="M1010.044,532.084a12.086,12.086,0,0,0-1.39-3.1,12.993,12.993,0,0,0-2.158-2.633,13.129,13.129,0,0,0-2.8-2.04,14.808,14.808,0,0,0-3.291-1.308,14.646,14.646,0,0,0-7.331,0,14.975,14.975,0,0,0-3.291,1.308,13.627,13.627,0,0,0-4.98,4.673,12.679,12.679,0,0,0-1.4,3.1,12.284,12.284,0,0,0,0,6.9,12.811,12.811,0,0,0,3.569,5.744,13.634,13.634,0,0,0,2.809,2.048,14.227,14.227,0,0,0,3.291,1.317,14.644,14.644,0,0,0,7.331,0,14.076,14.076,0,0,0,3.291-1.317,13.449,13.449,0,0,0,2.8-2.048,12.984,12.984,0,0,0,2.158-2.633,12.664,12.664,0,0,0,1.39-3.111,12.189,12.189,0,0,0,0-6.9Zm-5.483,6.558a8.326,8.326,0,0,1-1.815,2.531,8.464,8.464,0,0,1-2.706,1.713,8.893,8.893,0,0,1-6.615,0,8.422,8.422,0,0,1-4.534-4.244,7.577,7.577,0,0,1,0-6.214,8.125,8.125,0,0,1,1.836-2.543,8.469,8.469,0,0,1,2.7-1.713,9,9,0,0,1,6.615,0,8.462,8.462,0,0,1,2.706,1.713,8,8,0,0,1,1.815,2.543,7.534,7.534,0,0,1,0,6.214Z" transform="translate(58.122 4.924)"/><path class="a" d="M1002.543,542.742V522.611H997.2v25.168h17.29v-5.037Z" transform="translate(102.242 5.161)"/><rect class="a" width="11.95" height="4.339" transform="translate(1077.363 520.94)"/><path class="a" d="M1018.065,522.611v15.11a4.5,4.5,0,0,1-.425,1.946,4.958,4.958,0,0,1-1.145,1.6,5.573,5.573,0,0,1-7.559,0,5.08,5.08,0,0,1-1.145-1.6,4.488,4.488,0,0,1-.417-1.946v-15.11h-5.331v15.11a9.4,9.4,0,0,0,.842,3.925,9.962,9.962,0,0,0,2.281,3.193,11.148,11.148,0,0,0,15.111,0,9.864,9.864,0,0,0,2.29-3.193,9.408,9.408,0,0,0,.842-3.925v-15.11Z" transform="translate(117.202 5.161)"/><path class="a" d="M1012.549,536.372v-.319h-.008v-1.611H1000.9v4.865h6.038a5.261,5.261,0,0,1-.257.724,5.014,5.014,0,0,1-1.169,1.635,5.379,5.379,0,0,1-1.742,1.108,5.553,5.553,0,0,1-2.122.4,5.618,5.618,0,0,1-3.863-1.513,5.33,5.33,0,0,1-1.169-1.635,4.916,4.916,0,0,1-.425-2v-1.66h-.028v-3.467a4.728,4.728,0,0,1,.433-2,5.016,5.016,0,0,1,1.169-1.636,5.375,5.375,0,0,1,1.742-1.108,5.556,5.556,0,0,1,2.122-.4,5.623,5.623,0,0,1,3.864,1.513c.049.049.094.1.139.147l1.57-1.57,2.187-2.187-.037-.037a11.362,11.362,0,0,0-15.45,0,10.724,10.724,0,0,0-2.331,3.275,9.578,9.578,0,0,0-.846,4.007v5.327h0a9.5,9.5,0,0,0,.855,3.806,10.533,10.533,0,0,0,2.339,3.271,11.49,11.49,0,0,0,11.983,2.208,11.016,11.016,0,0,0,3.467-2.208,10.569,10.569,0,0,0,2.331-3.271,9.336,9.336,0,0,0,.764-2.731h0l.078-1.014,0-.061h0v-1.86Z" transform="translate(82.236 5.161)"/><path class="a" d="M964.093,536.461a12.116,12.116,0,0,0,.76,3.43,12.979,12.979,0,0,0,2.212,3.72,13.481,13.481,0,0,0,3.348,2.825c.36.217.724.409,1.1.589.119.057.241.115.364.172l.111.045a14.143,14.143,0,0,0,2.159.756,14,14,0,0,0,3.63.462,14.543,14.543,0,0,0,4.747-.785,13.31,13.31,0,0,0,4.141-2.314l-2.8-4.354a8.117,8.117,0,0,1-2.755,1.819,8.886,8.886,0,0,1-3.328.634,8.473,8.473,0,0,1-3.291-.634,8.633,8.633,0,0,1-2.682-1.7,8.2,8.2,0,0,1-1.811-2.514,7.459,7.459,0,0,1,0-6.165,8.108,8.108,0,0,1,1.811-2.514,8.754,8.754,0,0,1,5.973-2.334,8.972,8.972,0,0,1,3.328.634,8.115,8.115,0,0,1,2.755,1.819l2.8-4.354a13.474,13.474,0,0,0-4.141-2.314,14.647,14.647,0,0,0-4.747-.781,14.274,14.274,0,0,0-5.789,1.214l-.111.049c-.122.053-.245.11-.364.168-.376.18-.74.376-1.1.589a13.574,13.574,0,0,0-3.348,2.825,13.04,13.04,0,0,0-2.212,3.72,12.142,12.142,0,0,0-.76,3.434" transform="translate(0 5.143)"/><path class="b" d="M975.648,534.442l-9.667,2.227v-5.114l9.667-2.227Z" transform="translate(5.829 25.905)"/></g></svg>