<?xml version="1.0" encoding="utf-8"?><svg xmlns="http://www.w3.org/2000/svg" width="26.302" height="40.582" viewBox="0 0 26.302 40.582"><defs><style>.a{fill:#17262f;}.b{fill:#ea3d3d;}</style></defs><path class="a" d="M964.093,538.75a14.115,14.115,0,0,0,.886,4,15.124,15.124,0,0,0,2.577,4.335,15.708,15.708,0,0,0,3.9,3.292c.419.253.843.476,1.281.686.138.067.281.134.424.2l.129.052a16.5,16.5,0,0,0,6.746,1.42,16.946,16.946,0,0,0,5.531-.915,15.51,15.51,0,0,0,4.826-2.7l-3.268-5.074a9.459,9.459,0,0,1-3.21,2.12,10.355,10.355,0,0,1-3.878.738,9.875,9.875,0,0,1-3.835-.738,10.06,10.06,0,0,1-3.125-1.977,9.561,9.561,0,0,1-2.11-2.93,8.693,8.693,0,0,1,0-7.184,9.45,9.45,0,0,1,2.11-2.93,10.2,10.2,0,0,1,6.96-2.72,10.454,10.454,0,0,1,3.878.738,9.458,9.458,0,0,1,3.21,2.12l3.268-5.074a15.7,15.7,0,0,0-4.826-2.7,17.069,17.069,0,0,0-5.531-.91,16.632,16.632,0,0,0-6.746,1.415l-.129.057c-.143.062-.286.129-.424.2-.438.21-.862.438-1.281.686a15.816,15.816,0,0,0-3.9,3.292,15.194,15.194,0,0,0-2.577,4.335,14.145,14.145,0,0,0-.886,4" transform="translate(-964.093 -522.605)"/><path class="b" d="M977.245,535.287l-11.265,2.6v-5.959l11.265-2.6Z" transform="translate(-956.988 -497.3)"/></svg>