<svg xmlns="http://www.w3.org/2000/svg" width="33.309" height="40" viewBox="0 0 33.309 40">
    <defs>
        <style>.a{fill:#EA3D3D;}</style>
    </defs>
    <g transform="translate(-0.225 -0.225)">
        <path class="a"
              d="M12.416,6.225a6.191,6.191,0,1,0,6.191,6.191A6.2,6.2,0,0,0,12.416,6.225Zm0,9.839a3.649,3.649,0,1,1,3.649-3.649A3.653,3.653,0,0,1,12.416,16.064Z"
              transform="translate(4.464 4.405)"/>
        <path class="a"
              d="M16.88.225A16.673,16.673,0,0,0,.225,16.88c0,8.308,13.756,20.8,16.513,23.223l.141.123.141-.123c2.757-2.421,16.513-14.912,16.513-23.223A16.672,16.672,0,0,0,16.88.225Zm.244,35.693-.244.2-.245-.2c-.561-.46-13.768-11.4-13.768-19.037a14.014,14.014,0,0,1,28.027,0C30.893,24.519,17.685,35.456,17.123,35.918Z"
              transform="translate(0 0)"/>
    </g>
</svg>