<svg xmlns="http://www.w3.org/2000/svg" width="50.744" height="50" viewBox="0 0 50.744 50"><defs><style>.a{fill:#ea3d3d;}</style></defs><rect class="a" width="24.91" height="4.297" rx="2.148" transform="translate(12.917 45.703)"/><path class="a" d="M106.139,34.235H70.909a7.684,7.684,0,0,0-7.757,7.591V53.507A11.187,11.187,0,0,0,74.32,64.558,17.124,17.124,0,0,0,82.241,70.8v3.46a1.808,1.808,0,0,0,1.827,1.788H92.98a1.808,1.808,0,0,0,1.827-1.788v-3.45a17.12,17.12,0,0,0,7.948-6.255A11.186,11.186,0,0,0,113.9,53.507V41.826A7.684,7.684,0,0,0,106.139,34.235ZM67.152,53.507V41.826a3.722,3.722,0,0,1,3.757-3.677h.5V55.213a16.423,16.423,0,0,0,.805,5.079A7.164,7.164,0,0,1,67.152,53.507Zm28.653-4.024-3.3,2.829L93.48,56.5a.779.779,0,0,1-.312.811.814.814,0,0,1-.883.037l-3.761-2.2-3.762,2.2a.812.812,0,0,1-.882-.037.777.777,0,0,1-.313-.811l.972-4.191-3.3-2.829a.774.774,0,0,1-.234-.835.8.8,0,0,1,.69-.541l4.363-.388,1.725-3.95a.81.81,0,0,1,1.477,0l1.724,3.951,4.362.388a.8.8,0,0,1,.692.541A.776.776,0,0,1,95.805,49.483ZM109.9,53.507a7.161,7.161,0,0,1-5.033,6.773,16.411,16.411,0,0,0,.8-5.067V38.149h.475a3.722,3.722,0,0,1,3.757,3.677Z" transform="translate(-63.152 -34.235)"/></svg>